<svg width="25" height="25" viewBox="0 0 25 25" fill="none" xmlns="http://www.w3.org/2000/svg">
<g clip-path="url(#clip0_548_567)">
<g filter="url(#filter0_f_548_567)">
<path d="M7.94029 18.9875L8.24528 19.1682C9.52626 19.9284 10.995 20.3305 12.4928 20.3312H12.496C17.0957 20.3312 20.8392 16.5886 20.8411 11.9886C20.8419 9.75944 19.9747 7.66323 18.3991 6.0864C17.6263 5.30875 16.7069 4.69211 15.6942 4.27216C14.6815 3.85222 13.5956 3.63731 12.4992 3.63989C7.89594 3.63989 4.15235 7.38212 4.15071 11.9819C4.14844 13.5526 4.59075 15.0918 5.4265 16.4217L5.62506 16.7372L4.78185 19.8155L7.94029 18.9875ZM2.37109 22.2004L3.79563 16.9992C2.91708 15.4771 2.45488 13.7503 2.45543 11.9812C2.45775 6.4468 6.96157 1.94434 12.4961 1.94434C15.1818 1.9457 17.7027 2.99087 19.5986 4.88812C21.4945 6.78536 22.5376 9.3072 22.5367 11.9892C22.5342 17.5232 18.0297 22.0265 12.496 22.0265H12.4916C10.8113 22.0258 9.16027 21.6043 7.6937 20.8046L2.37109 22.2004Z" fill="#B3B3B3"/>
</g>
<path d="M2.26758 22.0978L3.69212 16.8967C2.81205 15.3709 2.34979 13.6401 2.35191 11.8787C2.35423 6.34426 6.85806 1.8418 12.3926 1.8418C15.0783 1.84316 17.5992 2.88833 19.4951 4.78558C21.391 6.68282 22.4341 9.20466 22.4331 11.8867C22.4307 17.4207 17.9262 21.924 12.3925 21.924H12.3881C10.7078 21.9233 9.05675 21.5018 7.59018 20.7021L2.26758 22.0978Z" fill="white"/>
<path d="M12.3954 3.53811C7.79211 3.53811 4.04852 7.28034 4.04688 11.8801C4.04462 13.4508 4.48693 14.99 5.32268 16.3199L5.52123 16.6356L4.67803 19.7139L7.8366 18.8857L8.14159 19.0664C9.42257 19.8266 10.8913 20.2286 12.3891 20.2295H12.3923C16.992 20.2295 20.7356 16.4868 20.7374 11.8868C20.7409 10.7904 20.5268 9.70418 20.1077 8.69107C19.6885 7.67796 19.0725 6.75805 18.2954 5.98462C17.5226 5.20695 16.6032 4.5903 15.5905 4.17035C14.5777 3.75041 13.4918 3.53551 12.3954 3.53811Z" fill="url(#paint0_linear_548_567)"/>
<path d="M9.88305 7.68244C9.69501 7.26473 9.49714 7.25626 9.31851 7.24903L8.83761 7.24316C8.67031 7.24316 8.39847 7.30594 8.16867 7.55703C7.93886 7.80812 7.29053 8.41497 7.29053 9.64928C7.29053 10.8836 8.18955 12.0763 8.31482 12.2439C8.44009 12.4114 10.0504 15.0251 12.6004 16.0307C14.7196 16.8664 15.1508 16.7002 15.611 16.6584C16.0711 16.6167 17.0953 16.0516 17.3042 15.4657C17.5131 14.8799 17.5132 14.378 17.4506 14.2731C17.388 14.1681 17.2207 14.1058 16.9696 13.9802C16.7185 13.8547 15.4853 13.2478 15.2553 13.164C15.0254 13.0802 14.8582 13.0386 14.6908 13.2897C14.5233 13.5408 14.0431 14.1056 13.8967 14.2731C13.7503 14.4405 13.6041 14.4615 13.353 14.3361C13.1019 14.2107 12.2941 13.9457 11.3356 13.091C10.5898 12.426 10.0864 11.6048 9.93982 11.3538C9.79326 11.1029 9.92426 10.967 10.0501 10.842C10.1627 10.7295 10.3009 10.549 10.4266 10.4026C10.5523 10.2561 10.5936 10.1515 10.6771 9.9843C10.7606 9.81713 10.719 9.6703 10.6563 9.54489C10.5935 9.41948 10.106 8.17862 9.88305 7.68244Z" fill="white"/>
</g>
<defs>
<filter id="filter0_f_548_567" x="1.40739" y="0.980634" width="22.0929" height="22.1833" filterUnits="userSpaceOnUse" color-interpolation-filters="sRGB">
<feFlood flood-opacity="0" result="BackgroundImageFix"/>
<feBlend mode="normal" in="SourceGraphic" in2="BackgroundImageFix" result="shape"/>
<feGaussianBlur stdDeviation="0.481851" result="effect1_foregroundBlur_548_567"/>
</filter>
<linearGradient id="paint0_linear_548_567" x1="12.2222" y1="4.53975" x2="12.3069" y2="18.8035" gradientUnits="userSpaceOnUse">
<stop stop-color="#57D163"/>
<stop offset="1" stop-color="#23B33A"/>
</linearGradient>
<clipPath id="clip0_548_567">
<rect width="23.9564" height="23.9564" fill="white" transform="translate(0.475098 0.0947266)"/>
</clipPath>
</defs>
</svg>
